<?xml version="1.0" encoding="utf-8" standalone="no"?>
<!DOCTYPE svg PUBLIC "-//W3C//DTD SVG 1.1//EN"
  "http://www.w3.org/Graphics/SVG/1.1/DTD/svg11.dtd">
<!-- Created with matplotlib (https://matplotlib.org/) -->
<svg height="345.6pt" version="1.1" viewBox="0 0 460.8 345.6" width="460.8pt" xmlns="http://www.w3.org/2000/svg" xmlns:xlink="http://www.w3.org/1999/xlink">
 <defs>
  <style type="text/css">
*{stroke-linecap:butt;stroke-linejoin:round;}
  </style>
 </defs>
 <g id="figure_1">
  <g id="patch_1">
   <path d="M 0 345.6 
L 460.8 345.6 
L 460.8 0 
L 0 0 
z
" style="fill:#ffffff;"/>
  </g>
  <g id="axes_1">
   <g id="patch_2">
    <path d="M 57.6 307.584 
L 414.72 307.584 
L 414.72 41.472 
L 57.6 41.472 
z
" style="fill:#ffffff;"/>
   </g>
   <g id="matplotlib.axis_1">
    <g id="xtick_1">
     <g id="line2d_1">
      <defs>
       <path d="M 0 0 
L 0 3.5 
" id="mbe32b6cbea" style="stroke:#000000;stroke-width:0.8;"/>
      </defs>
      <g>
       <use style="stroke:#000000;stroke-width:0.8;" x="73.77703" xlink:href="#mbe32b6cbea" y="307.584"/>
      </g>
     </g>
     <g id="text_1">
      <!-- 1.1 -->
      <defs>
       <path d="M 12.40625 8.296875 
L 28.515625 8.296875 
L 28.515625 63.921875 
L 10.984375 60.40625 
L 10.984375 69.390625 
L 28.421875 72.90625 
L 38.28125 72.90625 
L 38.28125 8.296875 
L 54.390625 8.296875 
L 54.390625 0 
L 12.40625 0 
z
" id="DejaVuSans-49"/>
       <path d="M 10.6875 12.40625 
L 21 12.40625 
L 21 0 
L 10.6875 0 
z
" id="DejaVuSans-46"/>
      </defs>
      <g transform="translate(65.825468 322.182437)scale(0.1 -0.1)">
       <use xlink:href="#DejaVuSans-49"/>
       <use x="63.623047" xlink:href="#DejaVuSans-46"/>
       <use x="95.410156" xlink:href="#DejaVuSans-49"/>
      </g>
     </g>
    </g>
    <g id="xtick_2">
     <g id="line2d_2">
      <g>
       <use style="stroke:#000000;stroke-width:0.8;" x="120.191393" xlink:href="#mbe32b6cbea" y="307.584"/>
      </g>
     </g>
     <g id="text_2">
      <!-- 1.2 -->
      <defs>
       <path d="M 19.1875 8.296875 
L 53.609375 8.296875 
L 53.609375 0 
L 7.328125 0 
L 7.328125 8.296875 
Q 12.9375 14.109375 22.625 23.890625 
Q 32.328125 33.6875 34.8125 36.53125 
Q 39.546875 41.84375 41.421875 45.53125 
Q 43.3125 49.21875 43.3125 52.78125 
Q 43.3125 58.59375 39.234375 62.25 
Q 35.15625 65.921875 28.609375 65.921875 
Q 23.96875 65.921875 18.8125 64.3125 
Q 13.671875 62.703125 7.8125 59.421875 
L 7.8125 69.390625 
Q 13.765625 71.78125 18.9375 73 
Q 24.125 74.21875 28.421875 74.21875 
Q 39.75 74.21875 46.484375 68.546875 
Q 53.21875 62.890625 53.21875 53.421875 
Q 53.21875 48.921875 51.53125 44.890625 
Q 49.859375 40.875 45.40625 35.40625 
Q 44.1875 33.984375 37.640625 27.21875 
Q 31.109375 20.453125 19.1875 8.296875 
z
" id="DejaVuSans-50"/>
      </defs>
      <g transform="translate(112.239831 322.182437)scale(0.1 -0.1)">
       <use xlink:href="#DejaVuSans-49"/>
       <use x="63.623047" xlink:href="#DejaVuSans-46"/>
       <use x="95.410156" xlink:href="#DejaVuSans-50"/>
      </g>
     </g>
    </g>
    <g id="xtick_3">
     <g id="line2d_3">
      <g>
       <use style="stroke:#000000;stroke-width:0.8;" x="166.605756" xlink:href="#mbe32b6cbea" y="307.584"/>
      </g>
     </g>
     <g id="text_3">
      <!-- 1.3 -->
      <defs>
       <path d="M 40.578125 39.3125 
Q 47.65625 37.796875 51.625 33 
Q 55.609375 28.21875 55.609375 21.1875 
Q 55.609375 10.40625 48.1875 4.484375 
Q 40.765625 -1.421875 27.09375 -1.421875 
Q 22.515625 -1.421875 17.65625 -0.515625 
Q 12.796875 0.390625 7.625 2.203125 
L 7.625 11.71875 
Q 11.71875 9.328125 16.59375 8.109375 
Q 21.484375 6.890625 26.8125 6.890625 
Q 36.078125 6.890625 40.9375 10.546875 
Q 45.796875 14.203125 45.796875 21.1875 
Q 45.796875 27.640625 41.28125 31.265625 
Q 36.765625 34.90625 28.71875 34.90625 
L 20.21875 34.90625 
L 20.21875 43.015625 
L 29.109375 43.015625 
Q 36.375 43.015625 40.234375 45.921875 
Q 44.09375 48.828125 44.09375 54.296875 
Q 44.09375 59.90625 40.109375 62.90625 
Q 36.140625 65.921875 28.71875 65.921875 
Q 24.65625 65.921875 20.015625 65.03125 
Q 15.375 64.15625 9.8125 62.3125 
L 9.8125 71.09375 
Q 15.4375 72.65625 20.34375 73.4375 
Q 25.25 74.21875 29.59375 74.21875 
Q 40.828125 74.21875 47.359375 69.109375 
Q 53.90625 64.015625 53.90625 55.328125 
Q 53.90625 49.265625 50.4375 45.09375 
Q 46.96875 40.921875 40.578125 39.3125 
z
" id="DejaVuSans-51"/>
      </defs>
      <g transform="translate(158.654194 322.182437)scale(0.1 -0.1)">
       <use xlink:href="#DejaVuSans-49"/>
       <use x="63.623047" xlink:href="#DejaVuSans-46"/>
       <use x="95.410156" xlink:href="#DejaVuSans-51"/>
      </g>
     </g>
    </g>
    <g id="xtick_4">
     <g id="line2d_4">
      <g>
       <use style="stroke:#000000;stroke-width:0.8;" x="213.020119" xlink:href="#mbe32b6cbea" y="307.584"/>
      </g>
     </g>
     <g id="text_4">
      <!-- 1.4 -->
      <defs>
       <path d="M 37.796875 64.3125 
L 12.890625 25.390625 
L 37.796875 25.390625 
z
M 35.203125 72.90625 
L 47.609375 72.90625 
L 47.609375 25.390625 
L 58.015625 25.390625 
L 58.015625 17.1875 
L 47.609375 17.1875 
L 47.609375 0 
L 37.796875 0 
L 37.796875 17.1875 
L 4.890625 17.1875 
L 4.890625 26.703125 
z
" id="DejaVuSans-52"/>
      </defs>
      <g transform="translate(205.068557 322.182437)scale(0.1 -0.1)">
       <use xlink:href="#DejaVuSans-49"/>
       <use x="63.623047" xlink:href="#DejaVuSans-46"/>
       <use x="95.410156" xlink:href="#DejaVuSans-52"/>
      </g>
     </g>
    </g>
    <g id="xtick_5">
     <g id="line2d_5">
      <g>
       <use style="stroke:#000000;stroke-width:0.8;" x="259.434482" xlink:href="#mbe32b6cbea" y="307.584"/>
      </g>
     </g>
     <g id="text_5">
      <!-- 1.5 -->
      <defs>
       <path d="M 10.796875 72.90625 
L 49.515625 72.90625 
L 49.515625 64.59375 
L 19.828125 64.59375 
L 19.828125 46.734375 
Q 21.96875 47.46875 24.109375 47.828125 
Q 26.265625 48.1875 28.421875 48.1875 
Q 40.625 48.1875 47.75 41.5 
Q 54.890625 34.8125 54.890625 23.390625 
Q 54.890625 11.625 47.5625 5.09375 
Q 40.234375 -1.421875 26.90625 -1.421875 
Q 22.3125 -1.421875 17.546875 -0.640625 
Q 12.796875 0.140625 7.71875 1.703125 
L 7.71875 11.625 
Q 12.109375 9.234375 16.796875 8.0625 
Q 21.484375 6.890625 26.703125 6.890625 
Q 35.15625 6.890625 40.078125 11.328125 
Q 45.015625 15.765625 45.015625 23.390625 
Q 45.015625 31 40.078125 35.4375 
Q 35.15625 39.890625 26.703125 39.890625 
Q 22.75 39.890625 18.8125 39.015625 
Q 14.890625 38.140625 10.796875 36.28125 
z
" id="DejaVuSans-53"/>
      </defs>
      <g transform="translate(251.48292 322.182437)scale(0.1 -0.1)">
       <use xlink:href="#DejaVuSans-49"/>
       <use x="63.623047" xlink:href="#DejaVuSans-46"/>
       <use x="95.410156" xlink:href="#DejaVuSans-53"/>
      </g>
     </g>
    </g>
    <g id="xtick_6">
     <g id="line2d_6">
      <g>
       <use style="stroke:#000000;stroke-width:0.8;" x="305.848845" xlink:href="#mbe32b6cbea" y="307.584"/>
      </g>
     </g>
     <g id="text_6">
      <!-- 1.6 -->
      <defs>
       <path d="M 33.015625 40.375 
Q 26.375 40.375 22.484375 35.828125 
Q 18.609375 31.296875 18.609375 23.390625 
Q 18.609375 15.53125 22.484375 10.953125 
Q 26.375 6.390625 33.015625 6.390625 
Q 39.65625 6.390625 43.53125 10.953125 
Q 47.40625 15.53125 47.40625 23.390625 
Q 47.40625 31.296875 43.53125 35.828125 
Q 39.65625 40.375 33.015625 40.375 
z
M 52.59375 71.296875 
L 52.59375 62.3125 
Q 48.875 64.0625 45.09375 64.984375 
Q 41.3125 65.921875 37.59375 65.921875 
Q 27.828125 65.921875 22.671875 59.328125 
Q 17.53125 52.734375 16.796875 39.40625 
Q 19.671875 43.65625 24.015625 45.921875 
Q 28.375 48.1875 33.59375 48.1875 
Q 44.578125 48.1875 50.953125 41.515625 
Q 57.328125 34.859375 57.328125 23.390625 
Q 57.328125 12.15625 50.6875 5.359375 
Q 44.046875 -1.421875 33.015625 -1.421875 
Q 20.359375 -1.421875 13.671875 8.265625 
Q 6.984375 17.96875 6.984375 36.375 
Q 6.984375 53.65625 15.1875 63.9375 
Q 23.390625 74.21875 37.203125 74.21875 
Q 40.921875 74.21875 44.703125 73.484375 
Q 48.484375 72.75 52.59375 71.296875 
z
" id="DejaVuSans-54"/>
      </defs>
      <g transform="translate(297.897283 322.182437)scale(0.1 -0.1)">
       <use xlink:href="#DejaVuSans-49"/>
       <use x="63.623047" xlink:href="#DejaVuSans-46"/>
       <use x="95.410156" xlink:href="#DejaVuSans-54"/>
      </g>
     </g>
    </g>
    <g id="xtick_7">
     <g id="line2d_7">
      <g>
       <use style="stroke:#000000;stroke-width:0.8;" x="352.263209" xlink:href="#mbe32b6cbea" y="307.584"/>
      </g>
     </g>
     <g id="text_7">
      <!-- 1.7 -->
      <defs>
       <path d="M 8.203125 72.90625 
L 55.078125 72.90625 
L 55.078125 68.703125 
L 28.609375 0 
L 18.3125 0 
L 43.21875 64.59375 
L 8.203125 64.59375 
z
" id="DejaVuSans-55"/>
      </defs>
      <g transform="translate(344.311646 322.182437)scale(0.1 -0.1)">
       <use xlink:href="#DejaVuSans-49"/>
       <use x="63.623047" xlink:href="#DejaVuSans-46"/>
       <use x="95.410156" xlink:href="#DejaVuSans-55"/>
      </g>
     </g>
    </g>
    <g id="xtick_8">
     <g id="line2d_8">
      <g>
       <use style="stroke:#000000;stroke-width:0.8;" x="398.677572" xlink:href="#mbe32b6cbea" y="307.584"/>
      </g>
     </g>
     <g id="text_8">
      <!-- 1.8 -->
      <defs>
       <path d="M 31.78125 34.625 
Q 24.75 34.625 20.71875 30.859375 
Q 16.703125 27.09375 16.703125 20.515625 
Q 16.703125 13.921875 20.71875 10.15625 
Q 24.75 6.390625 31.78125 6.390625 
Q 38.8125 6.390625 42.859375 10.171875 
Q 46.921875 13.96875 46.921875 20.515625 
Q 46.921875 27.09375 42.890625 30.859375 
Q 38.875 34.625 31.78125 34.625 
z
M 21.921875 38.8125 
Q 15.578125 40.375 12.03125 44.71875 
Q 8.5 49.078125 8.5 55.328125 
Q 8.5 64.0625 14.71875 69.140625 
Q 20.953125 74.21875 31.78125 74.21875 
Q 42.671875 74.21875 48.875 69.140625 
Q 55.078125 64.0625 55.078125 55.328125 
Q 55.078125 49.078125 51.53125 44.71875 
Q 48 40.375 41.703125 38.8125 
Q 48.828125 37.15625 52.796875 32.3125 
Q 56.78125 27.484375 56.78125 20.515625 
Q 56.78125 9.90625 50.3125 4.234375 
Q 43.84375 -1.421875 31.78125 -1.421875 
Q 19.734375 -1.421875 13.25 4.234375 
Q 6.78125 9.90625 6.78125 20.515625 
Q 6.78125 27.484375 10.78125 32.3125 
Q 14.796875 37.15625 21.921875 38.8125 
z
M 18.3125 54.390625 
Q 18.3125 48.734375 21.84375 45.5625 
Q 25.390625 42.390625 31.78125 42.390625 
Q 38.140625 42.390625 41.71875 45.5625 
Q 45.3125 48.734375 45.3125 54.390625 
Q 45.3125 60.0625 41.71875 63.234375 
Q 38.140625 66.40625 31.78125 66.40625 
Q 25.390625 66.40625 21.84375 63.234375 
Q 18.3125 60.0625 18.3125 54.390625 
z
" id="DejaVuSans-56"/>
      </defs>
      <g transform="translate(390.726009 322.182437)scale(0.1 -0.1)">
       <use xlink:href="#DejaVuSans-49"/>
       <use x="63.623047" xlink:href="#DejaVuSans-46"/>
       <use x="95.410156" xlink:href="#DejaVuSans-56"/>
      </g>
     </g>
    </g>
   </g>
   <g id="matplotlib.axis_2">
    <g id="ytick_1">
     <g id="line2d_9">
      <defs>
       <path d="M 0 0 
L -3.5 0 
" id="me68ce3c1e5" style="stroke:#000000;stroke-width:0.8;"/>
      </defs>
      <g>
       <use style="stroke:#000000;stroke-width:0.8;" x="57.6" xlink:href="#me68ce3c1e5" y="307.584"/>
      </g>
     </g>
     <g id="text_9">
      <!-- 20 -->
      <defs>
       <path d="M 31.78125 66.40625 
Q 24.171875 66.40625 20.328125 58.90625 
Q 16.5 51.421875 16.5 36.375 
Q 16.5 21.390625 20.328125 13.890625 
Q 24.171875 6.390625 31.78125 6.390625 
Q 39.453125 6.390625 43.28125 13.890625 
Q 47.125 21.390625 47.125 36.375 
Q 47.125 51.421875 43.28125 58.90625 
Q 39.453125 66.40625 31.78125 66.40625 
z
M 31.78125 74.21875 
Q 44.046875 74.21875 50.515625 64.515625 
Q 56.984375 54.828125 56.984375 36.375 
Q 56.984375 17.96875 50.515625 8.265625 
Q 44.046875 -1.421875 31.78125 -1.421875 
Q 19.53125 -1.421875 13.0625 8.265625 
Q 6.59375 17.96875 6.59375 36.375 
Q 6.59375 54.828125 13.0625 64.515625 
Q 19.53125 74.21875 31.78125 74.21875 
z
" id="DejaVuSans-48"/>
      </defs>
      <g transform="translate(37.875 311.383219)scale(0.1 -0.1)">
       <use xlink:href="#DejaVuSans-50"/>
       <use x="63.623047" xlink:href="#DejaVuSans-48"/>
      </g>
     </g>
    </g>
    <g id="ytick_2">
     <g id="line2d_10">
      <g>
       <use style="stroke:#000000;stroke-width:0.8;" x="57.6" xlink:href="#me68ce3c1e5" y="278.016"/>
      </g>
     </g>
     <g id="text_10">
      <!-- 40 -->
      <g transform="translate(37.875 281.815219)scale(0.1 -0.1)">
       <use xlink:href="#DejaVuSans-52"/>
       <use x="63.623047" xlink:href="#DejaVuSans-48"/>
      </g>
     </g>
    </g>
    <g id="ytick_3">
     <g id="line2d_11">
      <g>
       <use style="stroke:#000000;stroke-width:0.8;" x="57.6" xlink:href="#me68ce3c1e5" y="248.448"/>
      </g>
     </g>
     <g id="text_11">
      <!-- 60 -->
      <g transform="translate(37.875 252.247219)scale(0.1 -0.1)">
       <use xlink:href="#DejaVuSans-54"/>
       <use x="63.623047" xlink:href="#DejaVuSans-48"/>
      </g>
     </g>
    </g>
    <g id="ytick_4">
     <g id="line2d_12">
      <g>
       <use style="stroke:#000000;stroke-width:0.8;" x="57.6" xlink:href="#me68ce3c1e5" y="218.88"/>
      </g>
     </g>
     <g id="text_12">
      <!-- 80 -->
      <g transform="translate(37.875 222.679219)scale(0.1 -0.1)">
       <use xlink:href="#DejaVuSans-56"/>
       <use x="63.623047" xlink:href="#DejaVuSans-48"/>
      </g>
     </g>
    </g>
    <g id="ytick_5">
     <g id="line2d_13">
      <g>
       <use style="stroke:#000000;stroke-width:0.8;" x="57.6" xlink:href="#me68ce3c1e5" y="189.312"/>
      </g>
     </g>
     <g id="text_13">
      <!-- 100 -->
      <g transform="translate(31.5125 193.111219)scale(0.1 -0.1)">
       <use xlink:href="#DejaVuSans-49"/>
       <use x="63.623047" xlink:href="#DejaVuSans-48"/>
       <use x="127.246094" xlink:href="#DejaVuSans-48"/>
      </g>
     </g>
    </g>
    <g id="ytick_6">
     <g id="line2d_14">
      <g>
       <use style="stroke:#000000;stroke-width:0.8;" x="57.6" xlink:href="#me68ce3c1e5" y="159.744"/>
      </g>
     </g>
     <g id="text_14">
      <!-- 120 -->
      <g transform="translate(31.5125 163.543219)scale(0.1 -0.1)">
       <use xlink:href="#DejaVuSans-49"/>
       <use x="63.623047" xlink:href="#DejaVuSans-50"/>
       <use x="127.246094" xlink:href="#DejaVuSans-48"/>
      </g>
     </g>
    </g>
    <g id="ytick_7">
     <g id="line2d_15">
      <g>
       <use style="stroke:#000000;stroke-width:0.8;" x="57.6" xlink:href="#me68ce3c1e5" y="130.176"/>
      </g>
     </g>
     <g id="text_15">
      <!-- 140 -->
      <g transform="translate(31.5125 133.975219)scale(0.1 -0.1)">
       <use xlink:href="#DejaVuSans-49"/>
       <use x="63.623047" xlink:href="#DejaVuSans-52"/>
       <use x="127.246094" xlink:href="#DejaVuSans-48"/>
      </g>
     </g>
    </g>
    <g id="ytick_8">
     <g id="line2d_16">
      <g>
       <use style="stroke:#000000;stroke-width:0.8;" x="57.6" xlink:href="#me68ce3c1e5" y="100.608"/>
      </g>
     </g>
     <g id="text_16">
      <!-- 160 -->
      <g transform="translate(31.5125 104.407219)scale(0.1 -0.1)">
       <use xlink:href="#DejaVuSans-49"/>
       <use x="63.623047" xlink:href="#DejaVuSans-54"/>
       <use x="127.246094" xlink:href="#DejaVuSans-48"/>
      </g>
     </g>
    </g>
    <g id="ytick_9">
     <g id="line2d_17">
      <g>
       <use style="stroke:#000000;stroke-width:0.8;" x="57.6" xlink:href="#me68ce3c1e5" y="71.04"/>
      </g>
     </g>
     <g id="text_17">
      <!-- 180 -->
      <g transform="translate(31.5125 74.839219)scale(0.1 -0.1)">
       <use xlink:href="#DejaVuSans-49"/>
       <use x="63.623047" xlink:href="#DejaVuSans-56"/>
       <use x="127.246094" xlink:href="#DejaVuSans-48"/>
      </g>
     </g>
    </g>
    <g id="ytick_10">
     <g id="line2d_18">
      <g>
       <use style="stroke:#000000;stroke-width:0.8;" x="57.6" xlink:href="#me68ce3c1e5" y="41.472"/>
      </g>
     </g>
     <g id="text_18">
      <!-- 200 -->
      <g transform="translate(31.5125 45.271219)scale(0.1 -0.1)">
       <use xlink:href="#DejaVuSans-50"/>
       <use x="63.623047" xlink:href="#DejaVuSans-48"/>
       <use x="127.246094" xlink:href="#DejaVuSans-48"/>
      </g>
     </g>
    </g>
   </g>
   <g id="line2d_19">
    <path clip-path="url(#pfd76c16a2c)" d="M 398.487273 211.488 
L 398.018488 217.39746 
L 397.786416 205.568191 
L 397.549703 210.001469 
L 397.317631 208.520999 
L 397.085559 193.734929 
L 396.848846 204.08166 
L 396.384702 192.250468 
L 396.15263 190.769998 
L 395.920558 192.246328 
L 395.688487 186.330067 
L 395.451773 192.242189 
L 395.219702 209.981067 
L 394.523486 184.842797 
L 394.291414 196.667188 
L 394.059342 186.316762 
L 393.59984 211.445126 
L 393.367768 178.918848 
L 393.135697 207.005787 
L 392.671553 190.739395 
L 392.212051 208.476056 
L 391.979979 196.646786 
L 391.752549 206.993516 
L 391.520477 192.207594 
L 391.288405 196.640724 
L 391.060975 198.117055 
L 390.828903 196.636585 
L 390.601472 193.677715 
L 390.369401 184.805837 
L 390.14197 196.630524 
L 389.909898 184.801402 
L 389.682468 198.104784 
L 389.455038 184.796966 
L 389.222966 196.622244 
L 388.995535 202.533923 
L 388.768105 184.791053 
L 388.536033 183.311174 
L 388.308603 211.398113 
L 388.081173 178.871539 
L 387.853742 202.523574 
L 387.16681 192.168712 
L 386.939379 205.472243 
L 386.711949 196.599921 
L 386.484518 195.119451 
L 386.257088 190.682181 
L 386.029658 202.507311 
L 385.802227 183.286042 
L 385.579438 186.241363 
L 385.352008 187.716806 
L 385.124578 181.801728 
L 384.897147 192.14831 
L 384.669717 184.754093 
L 384.442286 195.100971 
L 384.219498 193.620649 
L 383.992067 180.312979 
L 383.541848 190.65764 
L 383.314417 171.436666 
L 383.086987 201.0023 
L 382.864198 187.69463 
L 382.636768 198.041508 
L 382.413979 193.604239 
L 382.186548 202.472569 
L 381.963759 183.252038 
L 381.736329 183.249082 
L 381.51354 186.204403 
L 381.28611 192.115638 
L 381.063321 193.591968 
L 380.840532 187.67689 
L 380.613102 192.109576 
L 380.167524 177.320698 
L 379.717304 205.406897 
L 379.494515 175.836384 
L 379.271726 187.662106 
L 379.048937 177.311827 
L 378.826149 195.049966 
L 378.60336 186.177792 
L 378.380571 189.131635 
L 378.157782 175.824557 
L 377.712204 193.561365 
L 377.489415 187.645843 
L 377.266626 189.122765 
L 377.043837 195.033556 
L 376.821048 192.074834 
L 376.598259 196.507964 
L 376.37547 197.984294 
L 376.157323 203.895825 
L 375.934534 195.023355 
L 375.711745 195.021433 
L 375.488956 209.803363 
L 375.270808 187.625146 
L 375.048019 189.102067 
L 374.82523 183.18551 
L 374.607083 197.967884 
L 374.384294 187.617754 
L 374.166146 192.050292 
L 373.943358 199.440223 
L 373.72521 184.653562 
L 373.502421 183.173683 
L 373.284274 183.172205 
L 372.62519 208.298352 
L 372.402401 194.990682 
L 372.184253 171.334656 
L 371.966106 183.158899 
L 371.743317 202.376621 
L 371.525169 190.547351 
L 371.307022 203.850881 
L 371.088874 194.978412 
L 370.870727 178.71335 
L 370.647938 189.060672 
L 370.42979 183.145594 
L 370.211643 183.142637 
L 369.993495 184.619558 
L 369.775348 192.009489 
L 369.5572 186.093523 
L 369.339053 172.786445 
L 369.120905 205.308879 
L 368.902758 175.73881 
L 368.68461 190.52074 
L 368.466463 193.475618 
L 368.252957 181.646496 
L 368.034809 189.037018 
L 367.816662 175.728461 
L 367.380367 199.379017 
L 367.166861 187.549747 
L 366.948713 196.418077 
L 366.517059 177.195034 
L 366.298912 183.105677 
L 366.080764 184.582598 
L 365.867258 196.407876 
L 365.435605 180.141485 
L 365.217457 190.488067 
L 365.003951 194.921345 
L 364.785804 206.746476 
L 364.572298 190.482006 
L 364.358792 186.044736 
L 364.140644 194.913066 
L 363.927138 177.169901 
L 363.495484 196.385405 
L 363.281978 188.991187 
L 362.854966 188.986752 
L 362.636819 197.855674 
L 362.423313 178.634995 
L 361.9963 193.414264 
L 361.782794 175.670803 
L 361.569288 184.539725 
L 361.355782 181.581446 
L 361.142276 194.884533 
L 360.92877 188.969011 
L 360.715264 191.923594 
L 360.501758 205.227272 
L 360.288252 193.398002 
L 360.074746 188.960141 
L 359.86124 206.699462 
L 359.647734 172.694784 
L 359.225363 205.215001 
L 359.011857 194.864131 
L 358.798351 191.905261 
L 358.584845 196.338392 
L 358.37598 184.508678 
L 357.948968 197.81073 
L 357.740103 184.502765 
L 357.526597 197.806591 
L 357.317733 191.890921 
L 357.104227 193.367251 
L 356.895362 190.408529 
L 356.472991 208.14519 
L 356.259485 199.27272 
L 356.050621 197.79225 
L 355.837114 187.441824 
L 355.62825 187.438867 
L 355.419385 205.178189 
L 355.205879 184.47911 
L 354.997015 188.911354 
L 354.78815 187.431475 
L 354.574644 188.906918 
L 354.365779 177.07824 
L 354.156915 191.860318 
L 353.94805 193.336648 
L 353.530321 203.681457 
L 353.321456 196.287387 
L 353.10795 197.763717 
L 352.899085 184.455456 
L 352.690221 184.453978 
L 352.481356 180.017299 
L 352.272491 190.363586 
L 351.854762 185.924986 
L 351.650539 208.098177 
L 351.441674 190.355307 
L 351.23281 193.310185 
L 350.81508 193.306045 
L 350.401993 206.607506 
L 349.984263 187.384166 
L 349.571175 191.815375 
L 349.362311 200.683705 
L 349.158088 196.246583 
L 348.949223 208.071713 
L 348.740358 179.980339 
L 348.327271 199.195104 
L 348.123047 185.888026 
L 347.914183 203.626312 
L 347.70996 196.232243 
L 347.296872 202.141703 
L 347.092648 213.966833 
L 346.883784 185.87472 
L 346.679561 185.873242 
L 346.475337 187.350163 
L 346.266473 221.350702 
L 346.06225 196.215832 
L 345.858026 203.605763 
L 345.653803 182.906093 
L 345.444939 188.818214 
L 345.240715 213.948501 
L 345.036492 200.640831 
L 344.628046 213.94244 
L 344.423823 208.02677 
L 344.219599 194.7191 
L 344.015376 209.50103 
L 343.811153 196.193361 
L 343.60693 193.234639 
L 343.402707 193.232569 
L 343.198483 209.492899 
L 342.99426 197.663629 
L 342.790037 193.22636 
L 342.585814 200.61629 
L 342.381591 200.614368 
L 341.977786 188.782733 
L 341.569339 203.562889 
L 341.369758 191.733767 
L 341.165534 209.472497 
L 340.961311 209.470428 
L 340.761729 202.076358 
L 340.557506 202.074288 
L 340.353283 218.334766 
L 340.153701 213.897496 
L 339.949478 216.852227 
L 339.749896 193.195757 
L 339.545673 199.107287 
L 339.346091 200.583617 
L 339.141868 191.711295 
L 338.942286 191.709226 
L 338.738063 187.271808 
L 338.538481 191.705086 
L 338.3389 202.051816 
L 337.935095 187.264416 
L 337.735513 206.480955 
L 337.53129 196.130085 
L 337.331708 196.128015 
L 336.932544 215.343224 
L 336.732963 203.513954 
L 336.528739 215.339084 
L 336.329158 206.466614 
L 336.129576 207.942945 
L 335.929994 215.333023 
L 335.730412 210.895753 
L 335.530831 218.285683 
L 335.331249 209.413213 
L 335.131667 193.148744 
L 334.932085 206.452422 
L 334.532922 196.099482 
L 334.33334 196.097412 
L 334.133758 204.965743 
L 333.934177 194.614873 
L 333.739236 213.832151 
L 333.539654 194.610881 
L 333.140491 213.825942 
L 332.940909 200.518272 
L 332.745969 201.99475 
L 332.546387 204.94948 
L 332.346805 201.990611 
L 331.952283 206.421671 
L 331.557761 203.460879 
L 331.358179 199.02361 
L 331.163239 201.97834 
L 330.963657 218.23867 
L 330.569135 196.058678 
L 330.374195 191.621409 
L 330.174613 212.316939 
L 329.979673 213.793269 
L 329.780091 200.485599 
L 329.585151 204.918877 
L 329.39021 213.787208 
L 329.190629 216.741938 
L 328.995688 210.826268 
L 328.800748 213.780998 
L 328.605808 221.170929 
L 328.406226 207.863407 
L 328.211286 213.774937 
L 328.016345 203.424067 
L 327.821405 200.465197 
L 327.431524 216.723606 
L 327.231943 204.894336 
L 327.037002 204.892266 
L 326.842062 215.238996 
L 326.647122 216.715327 
L 326.452181 210.799805 
L 326.257241 198.970535 
L 326.062301 213.752465 
L 325.86736 206.358396 
L 325.67242 210.791526 
L 325.482121 210.789456 
L 325.287181 215.222734 
L 325.09224 204.871864 
L 324.70236 218.173325 
L 324.507419 210.779255 
L 324.317121 221.126133 
L 324.12218 209.296863 
L 323.92724 204.859594 
L 323.542001 210.769054 
L 323.34706 210.766984 
L 323.156761 231.462662 
L 322.961821 206.327793 
L 322.766881 221.109723 
L 322.576582 221.107653 
L 322.381642 229.975983 
L 321.996402 207.795992 
L 321.806103 212.229122 
L 321.611163 213.705452 
L 321.420864 218.138582 
L 321.225924 219.61506 
L 320.845326 212.218921 
L 320.650386 201.868051 
L 320.460087 226.998781 
L 320.269788 218.126312 
L 320.074848 221.08119 
L 319.884549 219.60072 
L 319.69425 200.37945 
L 319.503951 226.98858 
L 319.309011 216.637711 
L 318.928413 225.504119 
L 318.738114 215.153249 
L 318.547815 219.58638 
L 318.357516 216.62751 
L 318.167217 221.06064 
L 317.976919 231.407518 
L 317.78662 218.099848 
L 317.596321 226.968179 
L 317.406022 219.574109 
L 317.025424 228.440517 
L 316.835125 229.916847 
L 316.644826 225.479578 
L 316.454527 223.999108 
L 316.264229 221.040238 
L 315.888272 223.993046 
L 315.697973 226.947777 
L 315.507674 225.467307 
L 315.317376 209.202837 
L 314.941419 229.896445 
L 314.75112 223.980776 
L 314.565463 209.194706 
L 314.375164 212.149436 
L 313.999208 221.015844 
L 313.808909 215.100175 
L 313.623251 225.446905 
L 313.432952 228.401635 
L 313.056996 215.092044 
L 312.871339 223.960374 
L 312.68104 221.001504 
L 312.495382 225.434634 
L 312.119426 215.081695 
L 311.74347 222.469703 
L 311.372155 219.508764 
L 311.181856 216.549894 
L 310.996198 235.767172 
L 310.624883 207.673432 
L 310.434585 219.498563 
L 310.248927 223.931693 
L 310.06327 219.494423 
L 309.877612 235.754901 
L 309.691955 222.447231 
L 309.506297 223.923562 
L 309.32064 244.619092 
L 309.134982 216.527422 
L 308.944683 226.8743 
L 308.759026 220.95863 
L 308.573369 223.913361 
L 308.392353 217.997691 
L 308.206695 220.952421 
L 308.021038 229.820899 
L 307.649723 219.46796 
L 307.464065 226.85789 
L 307.278408 217.98542 
L 306.911734 232.765428 
L 306.726077 231.284959 
L 306.540419 220.934089 
L 306.173746 235.713949 
L 305.988089 231.276828 
L 305.802431 232.753158 
L 305.621415 217.967088 
L 305.435758 225.357018 
L 305.2501 225.354948 
L 305.069084 219.439279 
L 304.883427 226.829357 
L 304.702411 228.305687 
L 304.516753 219.433217 
L 304.335737 234.215148 
L 304.15008 223.864278 
L 303.969064 222.383956 
L 303.783406 231.252286 
L 303.60239 231.250216 
L 303.416733 225.334547 
L 303.235717 232.724477 
L 303.050059 234.200955 
L 302.869043 228.285285 
L 302.688027 232.718415 
L 302.50237 226.802746 
L 302.321354 231.235876 
L 302.140338 222.363406 
L 301.959322 223.839884 
L 301.773664 238.621814 
L 301.592648 228.270945 
L 301.411632 235.660875 
L 301.0496 217.916083 
L 300.687568 228.260744 
L 300.501911 226.780274 
L 300.320895 231.213404 
L 300.139879 226.776134 
L 299.777847 235.642543 
L 299.596831 232.683673 
L 299.415815 232.681603 
L 299.234799 240.071533 
L 299.053783 228.242412 
L 298.877408 228.240342 
L 298.696392 237.108672 
L 298.515376 237.106602 
L 298.33436 235.626132 
L 298.153344 235.624211 
L 297.795953 231.184871 
L 297.614937 213.442001 
L 297.433921 240.051132 
L 297.252905 231.178662 
L 297.076531 231.17674 
L 296.895515 243.00187 
L 296.714499 235.6078 
L 296.357108 244.474061 
L 296.176092 232.644939 
L 295.999718 242.991669 
L 295.818702 223.770399 
L 295.642327 237.07393 
L 295.461311 235.59346 
L 295.284936 231.15619 
L 295.10392 229.675868 
L 294.927546 231.152198 
L 294.74653 238.542129 
L 294.389139 231.145989 
L 294.03639 244.447597 
L 293.855374 231.139928 
L 293.678999 250.357058 
L 293.145234 232.610196 
L 292.792485 248.868457 
L 292.435095 235.558717 
L 292.25872 239.991996 
L 292.082345 239.989926 
L 291.905971 232.595856 
L 291.729596 241.464186 
L 291.553222 238.505316 
L 291.376847 226.676195 
L 291.200472 239.979725 
L 291.024098 231.107255 
L 290.847723 253.281185 
L 290.671349 247.365516 
L 290.494974 235.536246 
L 290.3186 235.534324 
L 290.142225 251.794654 
L 289.96585 237.008584 
L 289.789476 232.571315 
L 289.613101 237.004445 
L 289.436727 244.394523 
L 289.260352 241.435653 
L 289.083978 242.911983 
L 288.912244 239.953114 
L 288.73587 239.951044 
L 288.559495 241.427522 
L 288.383121 238.468652 
L 288.035013 247.334913 
L 287.858638 244.376043 
L 287.686905 236.981973 
L 287.510531 250.285651 
L 287.334156 234.021181 
L 287.162423 242.889512 
L 286.986048 242.887442 
L 286.814315 254.712572 
L 286.637941 256.18905 
L 286.461566 232.53258 
L 286.289833 239.922511 
L 286.113458 241.398841 
L 285.941725 231.047971 
L 285.593617 248.78478 
L 285.421884 238.43391 
L 285.24551 244.34544 
L 285.073777 239.90817 
L 284.902043 244.3413 
L 284.725669 233.990579 
L 284.553936 236.945309 
L 284.382203 250.248839 
L 284.205828 245.811569 
L 284.034095 235.4607 
L 283.862362 236.937178 
L 283.690629 263.546308 
L 283.342521 226.582168 
L 283.170788 241.364099 
L 282.999055 238.405229 
L 282.655588 247.271637 
L 282.483855 241.355967 
L 282.312122 241.353898 
L 282.135747 250.222228 
L 281.964014 236.914706 
L 281.792281 236.912636 
L 281.620548 251.694566 
L 281.448815 239.865297 
L 281.10999 248.731557 
L 280.766524 242.813965 
L 280.59479 242.811896 
L 280.251324 254.634956 
L 279.907858 229.498164 
L 279.740766 232.452895 
L 279.569033 241.321225 
L 279.3973 241.319155 
L 279.225567 235.403633 
L 278.886742 242.791494 
L 278.715009 238.354224 
L 278.547917 248.700954 
L 278.376184 244.263684 
L 278.204451 247.218563 
L 278.037359 238.346093 
L 277.865626 238.344023 
L 277.698534 254.604353 
L 277.526801 250.167084 
L 277.187976 239.814292 
L 276.849151 250.158952 
L 276.68206 250.156883 
L 276.343235 236.847291 
L 276.171502 253.107621 
L 276.00441 242.756751 
L 275.837318 242.754682 
L 275.665585 232.403812 
L 275.498493 248.66429 
L 275.331402 250.14062 
L 275.159669 250.13855 
L 274.992577 244.222881 
L 274.825485 251.612811 
L 274.658393 248.654089 
L 274.48666 242.738419 
L 274.319569 256.041949 
L 274.152477 258.99668 
L 273.985385 242.73221 
L 273.651202 253.077018 
L 273.479469 241.247748 
L 273.145285 254.549209 
L 272.978194 253.068739 
L 272.811102 253.066817 
L 272.64401 254.543148 
L 272.476918 245.670678 
L 272.309827 250.103808 
L 272.142735 244.188138 
L 271.975643 257.491668 
L 271.808552 256.011347 
L 271.64146 248.617277 
L 271.47901 256.007207 
L 271.311918 254.526737 
L 271.144826 248.611068 
L 270.977734 238.260346 
L 270.643551 260.432206 
L 270.481101 251.559736 
L 270.314009 250.079267 
L 270.146917 247.120545 
L 269.979826 261.902475 
L 269.817375 250.073205 
L 269.650284 253.027935 
L 269.483192 251.547466 
L 269.320742 257.458996 
L 269.15365 250.065074 
L 268.986558 250.063004 
L 268.824108 255.974534 
L 268.657016 257.450865 
L 268.494566 255.970395 
L 268.327474 248.576473 
L 267.997932 257.442733 
L 267.835482 253.005464 
L 267.66839 254.481794 
L 267.50594 253.001324 
L 267.338848 244.129002 
L 267.176398 258.910932 
L 266.846856 251.514793 
L 266.684406 260.383123 
L 266.354864 250.030332 
L 266.192414 250.028262 
L 265.862872 254.459322 
L 265.700421 254.4574 
L 265.537971 266.282531 
L 265.208429 257.407991 
L 265.045979 260.362721 
L 264.883529 255.925452 
L 264.721078 260.35873 
L 264.553987 261.83506 
L 264.391536 257.39779 
L 264.229086 245.56852 
L 264.066636 257.393651 
L 263.904186 252.956529 
L 263.416835 260.342319 
L 263.091934 257.381528 
L 262.929484 254.422658 
L 262.767034 255.898988 
L 262.604583 254.418518 
L 262.442133 257.373249 
L 262.279683 270.676779 
L 262.117233 266.239657 
L 261.959424 258.845587 
L 261.796973 261.800317 
L 261.634523 258.841448 
L 261.472073 272.144978 
L 261.151814 260.313786 
L 260.826913 257.352847 
L 260.664463 272.134777 
L 260.506654 261.783907 
L 260.344204 270.652385 
L 260.181754 266.215116 
L 260.023945 255.864246 
L 259.861495 264.732576 
L 259.699044 257.338506 
L 259.541235 272.120584 
L 259.378785 264.726515 
L 259.220976 264.724445 
L 259.058526 266.200775 
L 258.900717 257.328305 
L 258.580458 266.194714 
L 258.418008 266.192644 
L 258.260199 269.147374 
L 257.93994 255.837635 
L 257.619681 258.790443 
L 256.983804 272.087912 
L 256.821354 261.737042 
L 256.663545 267.648572 
L 256.505736 267.646502 
L 256.343286 255.817233 
L 256.185477 267.642363 
L 256.027668 269.118841 
L 255.869859 269.116771 
L 255.71205 273.549901 
L 255.391791 266.153762 
L 255.233983 267.63024 
L 255.076174 270.58497 
L 254.760556 258.753631 
L 254.602747 261.708361 
L 254.444938 269.098439 
L 254.28713 258.747569 
L 254.129321 258.7455 
L 253.813703 270.56856 
L 253.655894 263.17449 
L 253.498085 270.564568 
L 253.340276 264.648899 
L 253.182468 266.125229 
L 253.024659 269.079959 
L 252.86685 269.077889 
L 252.709041 272.032767 
L 252.551232 270.552298 
L 252.398065 272.028628 
L 252.240256 263.156158 
L 251.924638 266.108819 
L 251.76683 273.498897 
L 251.613662 264.626427 
L 251.455853 270.537957 
L 251.298045 270.535887 
L 251.144877 272.012218 
L 250.987068 269.053496 
L 250.829259 279.400226 
L 250.676092 269.049356 
L 250.518283 270.525686 
L 250.360474 264.610017 
L 250.207307 273.478495 
L 249.896331 269.039155 
L 249.738522 271.993885 
L 249.585355 270.513416 
L 249.274378 263.117424 
L 249.116569 264.593754 
L 248.963402 267.548484 
L 248.805593 267.546415 
L 248.652426 274.936345 
L 248.494617 266.064023 
L 248.34145 266.061953 
L 248.188282 273.451884 
L 248.030473 271.971414 
L 247.877306 269.012544 
L 247.56633 271.965352 
L 247.413162 277.876883 
L 247.259995 269.004413 
L 247.102186 267.523943 
L 246.949019 274.913873 
L 246.795851 273.433551 
L 246.642684 276.388282 
L 246.484875 273.429412 
L 246.331708 280.819342 
L 246.17854 270.468472 
L 246.025373 273.42335 
L 245.565871 268.981941 
L 245.408062 264.544671 
L 245.101727 270.45428 
L 244.94856 255.66821 
L 244.795392 276.36374 
L 244.642225 273.40487 
L 244.33589 273.400879 
L 244.182723 277.834009 
L 244.029555 277.831939 
L 243.881029 276.351469 
L 243.727862 268.9574 
L 243.574695 270.43373 
L 243.421527 265.996608 
L 243.26836 274.864938 
L 243.115192 268.949268 
L 242.962025 277.817599 
L 242.813499 276.337129 
L 242.660332 280.770407 
L 242.507164 277.811537 
L 242.353997 282.244668 
L 242.052303 273.370128 
L 241.899136 271.889806 
L 241.745969 274.844536 
L 241.291108 265.967927 
L 241.142582 276.314657 
L 240.836247 273.353866 
L 240.534554 277.784926 
L 240.386028 274.826056 
L 240.23286 276.302534 
L 240.084334 270.386865 
L 239.931167 274.819995 
L 239.782641 271.861125 
L 239.32778 285.160664 
L 239.179254 268.896194 
L 239.030728 280.721324 
L 238.877561 277.762454 
L 238.729035 271.846785 
L 238.575868 271.844863 
L 238.427342 277.756393 
L 238.278816 274.797523 
L 238.125648 267.403453 
L 237.977122 271.836584 
L 237.828596 268.877862 
L 237.68007 276.267792 
L 237.526903 274.787322 
L 237.378377 268.871652 
L 237.081325 279.216313 
L 236.928158 276.257591 
L 236.779632 280.690721 
L 236.631106 279.210252 
L 236.48258 268.859382 
L 236.334054 268.857312 
L 236.185528 274.76899 
L 236.037002 276.24532 
L 235.888476 280.678451 
L 235.73995 279.197981 
L 235.586783 276.239111 
L 235.438257 276.237041 
L 235.289731 268.843119 
L 234.992679 285.10138 
L 234.848794 270.31531 
L 234.700268 274.74844 
L 234.551742 273.268118 
L 234.403216 276.222849 
L 234.25469 276.220779 
L 234.106164 274.740309 
L 233.957638 280.651839 
L 233.809113 273.257917 
L 233.660587 279.169448 
L 233.516702 268.818578 
L 233.368176 280.643708 
L 233.21965 274.728038 
L 233.071124 282.117969 
L 232.778714 268.808377 
L 232.630188 268.806307 
L 232.481662 276.196237 
L 232.189251 268.800246 
L 232.040725 261.406176 
L 231.748315 271.750836 
L 231.599789 261.399967 
L 231.455904 280.617245 
L 231.158852 273.221105 
L 231.014968 273.219036 
L 230.866442 268.781766 
L 230.722557 276.171696 
L 230.574031 265.820974 
L 230.281621 271.730435 
L 230.137736 277.641965 
L 229.98921 274.683095 
L 229.845326 267.289173 
L 229.552915 267.285034 
L 229.409031 265.804564 
L 229.260505 270.237694 
L 229.11662 259.886824 
L 228.972736 268.755302 
L 228.82421 264.318033 
L 228.680325 265.794363 
L 228.536441 264.313893 
L 228.24403 270.279976 
L 228.100146 270.246417 
L 227.956261 273.206765 
L 227.807735 267.180215 
L 227.663851 266.236257 
L 227.519966 266.246753 
L 227.376082 263.210268 
L 227.232197 266.201514 
L 227.083671 264.5735 
L 226.939787 269.163932 
L 226.795902 269.472326 
L 226.652018 270.341921 
L 226.364249 262.888568 
L 226.220364 261.547363 
L 226.07648 270.625331 
L 225.932595 265.002236 
L 225.788711 265.974284 
L 225.644826 265.103359 
L 225.500942 270.428556 
L 225.213172 262.23822 
L 225.069288 260.775343 
L 224.925403 267.882751 
L 224.781519 264.902592 
L 224.637634 269.397815 
L 224.349865 262.142124 
L 224.210622 266.947663 
L 224.066738 263.8309 
L 223.778969 264.223563 
L 223.635084 267.082345 
L 223.495841 259.768848 
L 223.351957 264.585771 
L 223.208072 262.634579 
L 223.064187 265.691171 
L 222.924944 264.12451 
L 222.78106 269.725576 
L 222.497932 259.884755 
L 222.354048 260.719903 
L 222.210163 263.568632 
L 222.07092 251.056637 
L 221.927036 257.476589 
L 221.783151 255.365581 
L 221.643908 257.092796 
L 221.500023 254.093418 
L 221.36078 256.996848 
L 221.077653 250.887804 
L 220.933768 257.186083 
L 220.794525 248.85663 
L 220.650641 248.190906 
L 220.511397 252.665284 
L 220.367513 251.3124 
L 220.084385 238.419865 
L 219.805899 247.162827 
L 219.239644 239.789455 
L 219.100401 237.841071 
L 218.817273 240.204589 
L 218.67803 247.727428 
L 218.394903 241.982661 
L 217.977173 240.310591 
L 217.83793 238.54065 
L 217.694046 239.769644 
L 217.554803 228.93519 
L 217.415559 247.69919 
L 217.276316 236.744838 
L 217.137073 243.041935 
L 216.99783 237.635869 
L 216.858587 236.995279 
L 216.719344 240.133774 
L 216.580101 234.235845 
L 216.301615 235.997211 
L 216.023129 249.283 
L 215.883885 245.346169 
L 215.605399 251.543622 
L 215.466156 239.468494 
L 215.326913 246.109023 
L 215.18767 241.600495 
L 215.048427 242.96358 
L 214.909184 239.738006 
L 214.769941 241.128589 
L 214.496096 249.383384 
L 214.21761 237.459496 
L 214.078367 248.322632 
L 213.939124 249.666349 
L 213.66992 242.3017 
L 213.530677 237.866796 
L 213.391434 245.259091 
L 213.252191 240.824039 
L 213.112948 249.694735 
L 212.978346 249.69503 
L 212.839103 261.522378 
L 212.69986 255.609074 
L 212.560617 258.56617 
L 212.426015 252.652865 
L 212.286772 257.088213 
L 212.012928 248.218404 
L 211.873685 254.132152 
L 211.734441 246.740448 
L 211.59984 257.089544 
L 211.460597 249.697692 
L 211.325995 265.960387 
L 211.047509 254.133779 
L 210.912907 255.612326 
L 210.773664 258.569422 
L 210.639062 255.612918 
L 210.499819 258.569866 
L 210.365218 257.091761 
L 210.225975 245.264857 
L 209.95213 268.9197 
L 209.817528 254.135996 
L 209.678285 255.614692 
L 209.409082 252.658335 
L 209.269839 257.093831 
L 209.135237 271.878127 
L 208.995994 257.094275 
L 208.861392 255.61617 
L 208.726791 255.616466 
L 208.587548 254.138214 
L 208.452946 251.181709 
L 208.179101 261.530953 
L 208.0445 255.617649 
L 207.909898 258.574744 
L 207.636053 268.923988 
L 207.501452 265.967484 
L 207.36685 257.097379 
L 207.232248 261.532727 
L 207.093005 270.403423 
L 206.823802 257.098414 
L 206.6892 265.968962 
L 206.419997 261.534353 
L 206.285395 252.664101 
L 206.146152 264.491597 
L 206.01155 257.099892 
L 205.876949 265.970588 
L 205.742347 260.057136 
L 205.607746 267.449432 
L 205.338542 260.057875 
L 205.203941 261.536571 
L 205.069339 267.450467 
L 204.934737 267.450614 
L 204.800136 257.10211 
L 204.665534 267.451206 
L 204.530932 267.451501 
L 204.396331 264.494849 
L 204.261729 264.495145 
L 204.127127 265.973841 
L 203.857924 271.887884 
L 203.727964 263.01778 
L 203.593362 264.496476 
L 203.45876 274.845423 
L 203.324159 264.496919 
L 203.189557 265.975615 
L 203.054956 270.410963 
L 202.924995 270.411258 
L 202.790394 271.889954 
L 202.655792 271.89025 
L 202.52119 265.976797 
L 202.386589 265.977093 
L 202.256628 273.369389 
L 202.122027 265.977537 
L 201.857465 280.762128 
L 201.722863 268.935224 
L 201.588262 274.848972 
L 201.458301 264.500467 
L 201.189098 271.892911 
L 201.059138 280.763606 
L 200.924536 270.415102 
L 200.659974 279.285946 
L 200.395413 268.937737 
L 200.260811 283.721885 
L 199.861647 265.981824 
L 199.731687 276.33092 
L 199.467125 268.939511 
L 199.337165 274.853259 
L 199.202563 264.504755 
L 199.072603 273.37545 
L 198.938002 265.983598 
L 198.808041 276.332694 
L 198.67344 274.854589 
L 198.543479 274.854885 
L 198.413519 279.290233 
L 198.278918 273.376929 
L 198.018997 283.726172 
L 197.884395 274.856068 
L 197.754435 277.813164 
L 197.624475 274.856511 
L 197.489873 283.727207 
L 197.359913 276.335503 
L 197.229953 276.335798 
L 197.095351 285.206346 
L 196.835431 276.336538 
L 196.705471 279.293485 
L 196.440909 276.337277 
L 196.310949 286.686372 
L 196.180988 277.81612 
L 196.051028 280.773216 
L 195.921068 277.816712 
L 195.791108 279.29526 
L 195.656506 276.338755 
L 195.526546 279.295851 
L 195.396586 279.296147 
L 195.266625 267.469094 
L 195.136665 273.38299 
L 195.006705 273.383286 
L 194.616824 289.646425 
L 194.486864 280.776321 
L 194.356904 283.733268 
L 194.226944 279.298364 
L 194.096983 285.21226 
L 193.967023 280.777208 
L 193.707103 280.777799 
L 193.577143 279.299547 
L 193.447182 288.170243 
L 193.317222 271.908138 
L 193.057302 282.257382 
L 192.802023 273.387573 
L 192.672063 277.822921 
L 192.542102 277.823217 
L 192.282182 286.694208 
L 192.156863 274.867156 
L 192.026903 277.824252 
L 191.896943 277.824547 
L 191.766982 286.695095 
L 191.641664 274.868191 
L 191.511703 286.695686 
L 191.381743 279.303982 
L 191.251783 283.73933 
L 190.996504 276.347921 
L 190.741225 283.740365 
L 190.611265 283.74066 
L 190.355986 289.654704 
L 190.226026 285.2198 
L 189.970747 288.177043 
L 189.715468 280.785635 
L 189.460189 285.221278 
L 189.330228 279.307974 
L 189.20491 279.308269 
L 189.074949 283.743617 
L 188.944989 280.787113 
L 188.81967 282.265809 
L 188.694352 280.787556 
L 188.439073 280.788148 
L 188.309112 282.266844 
L 188.183794 282.266991 
L 187.928515 285.224383 
L 187.803196 289.659731 
L 187.673236 283.746426 
L 187.547917 288.181922 
L 187.417957 286.70367 
L 187.037359 279.312557 
L 186.91204 279.312705 
L 186.786721 285.2266 
L 186.661402 283.748496 
L 186.531442 286.705444 
L 186.406123 283.74894 
L 186.280805 288.184435 
L 186.150844 283.749531 
L 186.025526 283.749679 
L 185.900207 289.663574 
L 185.774888 279.31507 
L 185.519609 288.185914 
L 185.39429 280.794209 
L 185.268972 295.578505 
L 185.018334 285.230148 
L 184.767696 289.665792 
L 184.642378 289.666088 
L 184.512417 279.317583 
L 184.387099 289.666679 
L 184.136461 282.275123 
L 183.885824 288.189166 
L 183.760505 289.667862 
L 183.509867 286.711505 
L 183.25923 289.668897 
L 183.133911 288.190792 
L 183.008592 297.06134 
L 182.883273 288.191236 
L 182.757955 294.105132 
L 182.637277 286.713279 
L 182.511958 292.627175 
L 182.261321 289.670966 
L 182.136002 291.149514 
L 182.010683 291.14981 
L 181.885365 282.279706 
L 181.760046 289.671853 
L 181.639368 285.236949 
L 181.51405 285.237245 
L 181.263412 292.629688 
L 181.138093 286.716384 
L 180.892097 295.587228 
L 180.766778 286.717123 
L 180.520782 295.587967 
L 180.395463 291.153062 
L 180.270145 282.282958 
L 180.149467 291.153654 
L 180.024149 291.153802 
L 179.89883 292.632497 
L 179.652834 283.762541 
L 179.527515 295.590036 
L 179.406838 289.676732 
L 179.281519 292.633828 
L 179.160841 291.155576 
L 179.035523 294.112671 
L 178.910204 292.634567 
L 178.789527 292.634715 
L 178.418212 285.243602 
L 178.297534 288.20055 
L 178.172215 286.722445 
L 177.805542 286.723185 
L 177.680223 291.15868 
L 177.559546 288.202028 
L 177.434227 295.594324 
L 177.31355 292.63782 
L 177.192872 285.246115 
L 177.067554 295.595063 
L 176.946876 288.203359 
L 176.70088 292.639002 
L 176.454884 289.682794 
L 176.213529 294.118437 
L 175.967533 285.248628 
L 175.846856 294.119176 
L 175.60086 289.684568 
L 175.480182 292.641663 
L 175.359505 291.163411 
L 175.238828 288.206907 
L 175.113509 292.642403 
L 174.992832 292.64255 
L 174.872154 289.686046 
L 174.751477 297.078342 
L 174.6308 295.600237 
L 174.384803 286.730281 
L 174.264126 297.079377 
L 174.143449 288.209124 
L 174.022771 297.07982 
L 173.902094 294.123316 
L 173.781417 294.123464 
L 173.660739 286.731759 
L 173.540062 291.167255 
L 173.414743 291.167551 
L 173.294066 294.124499 
L 173.173389 292.646394 
L 173.052711 288.21149 
L 172.811357 294.125533 
L 172.570002 291.169325 
L 172.449325 286.734273 
L 172.20797 294.126864 
L 172.091934 292.648612 
L 171.971257 292.648908 
L 171.850579 289.692403 
L 171.729902 291.171099 
L 171.488547 295.606742 
L 171.36787 294.128638 
L 171.247193 297.085586 
L 171.126515 292.650682 
L 171.010479 294.129377 
L 170.889802 298.564725 
L 170.648447 292.651716 
L 170.411734 292.65216 
L 170.291057 291.174056 
L 170.170379 294.131151 
L 170.049702 294.131299 
L 169.929025 289.696395 
L 169.812989 289.696691 
L 169.692311 297.088986 
L 169.571634 295.610734 
L 169.455598 288.21903 
L 169.334921 295.611325 
L 169.214243 295.611473 
L 169.098207 291.176569 
L 168.97753 298.568865 
L 168.740817 291.177308 
L 168.62014 297.091204 
L 168.499462 286.7427 
L 168.383426 289.699647 
L 168.146713 297.092239 
L 168.026036 292.657334 
L 167.91 295.614282 
L 167.789322 294.136178 
L 167.668645 297.093274 
L 167.431932 289.701717 
L 167.315896 285.266813 
L 167.079183 295.616056 
L 166.842469 288.224648 
L 166.726434 297.095196 
L 166.605756 294.138691 
L 166.48972 297.095787 
L 166.369043 295.617535 
L 166.253007 303.00983 
L 166.016294 288.226422 
L 165.547509 294.140909 
L 165.310795 294.1415 
L 165.074082 291.185144 
L 164.958046 300.055839 
L 164.84201 295.620935 
L 164.725974 300.056283 
L 164.605297 298.578179 
L 164.489261 289.708074 
L 164.373225 294.143422 
L 164.257189 291.186918 
L 164.136512 298.579213 
L 164.020476 298.579509 
L 163.788404 292.666353 
L 163.672368 294.145048 
L 163.556333 291.188396 
L 163.435655 294.145492 
L 163.319619 294.145788 
L 163.203583 291.189283 
L 162.971512 294.146527 
L 162.855476 289.711622 
L 162.73944 291.19017 
L 162.623404 297.104066 
L 162.507368 289.712362 
L 162.391332 289.712657 
L 162.275296 291.191205 
L 162.154619 297.105101 
L 161.806511 289.71384 
L 161.690475 294.149336 
L 161.463045 294.149779 
L 161.347009 292.671675 
L 161.230973 300.063971 
L 161.114937 297.107318 
L 160.998901 298.586014 
L 160.882865 295.62951 
L 160.766829 297.108058 
L 160.534758 291.195049 
L 160.302686 297.109092 
L 160.075255 291.196084 
L 159.843184 298.588971 
L 159.727148 294.154214 
L 159.611112 297.111458 
L 159.499717 294.155101 
L 159.383681 298.590745 
L 159.151609 291.19978 
L 159.040215 298.592223 
L 158.924179 297.114267 
L 158.808143 292.67951 
L 158.692107 297.115154 
L 158.464677 291.202441 
L 158.348641 298.595032 
L 158.237247 291.203476 
L 158.121211 294.160719 
L 157.89378 288.248006 
L 157.777744 295.64045 
L 157.661708 295.640893 
L 157.550314 300.076537 
L 157.434278 289.728328 
L 157.322884 297.120772 
L 157.206848 291.207615 
L 157.095453 291.208059 
L 156.979417 298.600502 
L 156.863381 292.687346 
L 156.751987 295.644589 
L 156.635951 294.166781 
L 156.408521 298.602868 
L 156.297126 289.732911 
L 156.069696 297.125798 
L 155.95366 294.169442 
L 155.842265 294.169885 
L 155.730871 291.213677 
L 155.614835 294.17092 
L 155.503441 291.214564 
L 155.387405 295.650207 
L 155.27601 292.693851 
L 155.159974 300.086294 
L 155.04858 288.259538 
L 154.937185 294.173581 
L 154.821149 294.174173 
L 154.709755 295.653016 
L 154.59836 292.69666 
L 154.482325 292.697103 
L 154.1435 297.133634 
L 154.032105 294.177277 
L 153.809316 294.178312 
L 153.69328 297.135556 
L 153.581886 295.657599 
L 153.470491 295.658043 
L 153.359097 298.615286 
L 153.243061 291.22373 
L 153.131667 291.224173 
L 152.908878 292.703608 
L 152.797483 289.747252 
L 152.681447 291.226095 
L 152.570053 300.096939 
L 152.458658 292.705382 
L 152.347264 295.662626 
L 152.235869 291.227869 
L 152.124475 292.706861 
L 152.01308 297.142504 
L 151.901686 292.707748 
L 151.78565 298.621791 
L 151.674256 294.187035 
L 151.451467 297.144722 
L 151.340072 291.231713 
L 151.228678 295.667357 
L 151.117283 291.2326 
L 150.7831 295.669131 
L 150.671705 294.191174 
L 150.560311 294.191618 
L 150.337522 298.627853 
L 150.114733 292.71514 
L 150.003339 294.193983 
L 149.896585 292.716027 
L 149.785191 294.19487 
L 149.673797 298.630514 
L 149.562402 292.717505 
L 149.451008 297.153149 
L 149.339613 297.153592 
L 149.228219 295.675636 
L 149.116824 297.154479 
L 148.898677 292.720166 
L 148.675888 298.634801 
L 148.564493 298.635245 
L 148.45774 294.200488 
L 148.346346 297.157732 
L 148.234951 295.679775 
L 148.123557 285.331419 
L 147.794015 300.116897 
L 147.68262 294.203741 
L 147.575867 295.682584 
L 147.464473 292.726228 
L 147.353078 292.726671 
L 147.246325 294.205515 
L 147.134931 292.727558 
L 147.023536 295.684802 
L 146.916783 294.206993 
L 146.693994 297.16468 
L 146.587241 292.729924 
L 146.369094 298.644411 
L 146.257699 297.166454 
L 146.146305 300.123698 
L 146.039552 298.645889 
L 145.928157 300.124733 
L 145.821404 294.211576 
L 145.71001 297.16882 
L 145.603257 291.255663 
L 145.491862 298.648107 
L 145.273715 291.256994 
L 145.166962 295.692785 
L 145.055567 295.693229 
L 144.83742 292.737316 
L 144.730667 294.216159 
L 144.619272 291.259803 
L 144.512519 295.695446 
L 144.401125 295.696038 
L 144.187619 291.261725 
L 144.076224 300.132568 
L 143.862718 294.219855 
L 143.751324 300.133899 
L 143.644571 297.177542 
L 143.533176 297.178134 
L 143.426423 292.743377 
L 143.212917 300.136264 
L 142.99477 292.745151 
L 142.888017 300.137595 
L 142.776622 300.138038 
L 142.456363 297.182717 
L 142.238216 297.183604 
L 142.131463 294.227247 
L 142.02471 298.662891 
L 141.806562 295.707126 
L 141.699809 295.707569 
L 141.593056 301.621613 
L 141.486303 297.186856 
L 141.37955 301.6225 
L 141.161402 295.709787 
L 141.054649 300.14543 
L 140.947896 292.754022 
L 140.841143 300.146465 
L 140.73439 298.668509 
L 140.627637 292.755352 
L 140.520884 297.190996 
L 140.414131 295.713039 
L 140.307378 297.191883 
L 140.093872 292.757718 
L 139.987119 301.628561 
L 139.880366 292.758605 
L 139.66686 298.673092 
L 139.560107 292.759935 
L 139.346601 295.71777 
L 139.239848 291.283014 
L 139.026342 295.719101 
L 138.919589 298.676344 
L 138.706083 294.242031 
L 138.59933 300.156075 
L 138.492576 292.764666 
L 138.390465 295.72191 
L 138.283712 291.287153 
L 138.176959 297.201197 
L 137.963453 291.288484 
L 137.754588 297.202971 
L 137.647835 295.725162 
L 137.541082 297.204006 
L 137.327576 292.769693 
L 137.225464 294.248536 
L 137.118711 301.64098 
L 136.905205 295.728267 
L 136.696341 297.207702 
L 136.589588 294.251345 
L 136.380723 300.165832 
L 136.167217 295.731519 
L 136.065105 295.731963 
L 135.851599 298.689798 
L 135.642735 295.733885 
L 135.43387 297.213172 
L 135.327117 297.213615 
L 135.225005 295.735659 
L 135.118252 301.64985 
L 134.909388 295.737137 
L 134.802635 294.259181 
L 134.700523 295.738024 
L 134.59377 291.303268 
L 134.384905 297.217755 
L 134.176041 297.21879 
L 133.967176 294.262877 
L 133.865064 298.69852 
L 133.554088 294.264651 
L 133.345224 298.700886 
L 133.238471 298.701329 
L 133.136359 303.136973 
L 132.927494 294.26746 
L 132.825383 306.095103 
L 132.616518 294.268938 
L 132.407653 297.226625 
L 132.20343 295.749112 
L 132.096677 295.749556 
L 131.994566 294.271599 
L 131.892454 306.099391 
L 131.785701 301.664634 
L 131.683589 304.621878 
L 131.479366 294.273965 
L 131.270502 300.188452 
L 131.16839 297.232095 
L 130.964167 298.71153 
L 130.857414 297.233574 
L 130.755302 298.712417 
L 130.653191 291.320861 
L 130.551079 298.713304 
L 130.342214 292.800591 
L 130.03588 298.71567 
L 129.831656 295.759757 
L 129.418569 301.675279 
L 129.010122 294.285053 
L 128.908011 295.763896 
L 128.805899 297.24274 
L 128.703787 294.286383 
L 128.397453 297.244662 
L 128.295341 297.245105 
L 128.193229 294.288749 
L 128.091118 301.681192 
L 127.989006 291.332836 
L 127.886895 297.246879 
L 127.789424 294.290671 
L 127.687313 295.769514 
L 127.585201 294.291558 
L 127.48309 295.770401 
L 127.278866 300.206488 
L 127.176755 300.206932 
L 126.875061 303.16521 
L 126.77295 294.295254 
L 126.670838 297.252497 
L 126.568727 294.296141 
L 126.466615 298.731784 
L 126.267033 295.776019 
L 126.164922 303.168463 
L 126.06281 295.776906 
L 125.960698 298.73415 
L 125.863228 295.777793 
L 125.761117 301.691837 
L 125.556893 297.257524 
L 125.459423 300.214915 
L 125.357312 295.780159 
L 125.2552 300.215802 
L 125.055618 297.259889 
L 124.953507 297.260333 
L 124.856037 295.782376 
L 124.753925 303.17482 
L 124.651813 298.740211 
L 124.554343 300.219055 
L 124.452232 295.784298 
L 124.35012 300.219942 
L 124.25265 291.349985 
L 124.150538 300.220829 
L 124.053068 295.786072 
L 123.848845 297.265507 
L 123.751375 297.265951 
L 123.649263 294.309594 
L 123.449681 298.745681 
L 123.352211 297.267725 
L 123.2501 297.268168 
L 123.152629 294.311812 
L 122.953048 297.269647 
L 122.354302 297.272456 
L 122.256832 295.794499 
L 122.154721 297.273343 
L 121.955139 295.79583 
L 121.857669 295.796273 
L 121.458505 303.190195 
L 121.161453 292.842726 
L 120.966513 300.235613 
L 120.766931 298.758248 
L 120.571991 301.715935 
L 120.372409 295.803222 
L 120.274939 300.238865 
L 120.172827 291.368909 
L 120.075357 297.282952 
L 119.880417 292.848787 
L 119.782947 297.284431 
L 119.680835 294.328074 
L 119.485895 297.285761 
L 119.388425 294.329405 
L 119.290954 298.765048 
L 119.188843 295.80884 
L 118.993903 300.244927 
L 118.896432 295.81017 
L 118.798962 300.245814 
L 118.701492 294.332657 
L 118.604022 301.725101 
L 118.506552 298.768744 
L 118.409082 300.247736 
L 118.30697 298.769779 
L 118.2095 301.736928 
L 118.11203 295.867532 
L 118.014559 295.969098 
L 117.917089 296.131574 
L 117.819619 291.615949 
L 117.722149 300.195252 
L 117.624679 295.861914 
L 117.527209 300.583037 
L 117.332268 295.742903 
L 117.137328 297.383927 
L 117.039858 298.834385 
L 116.942388 295.358963 
L 116.844918 298.005446 
L 116.747447 297.64516 
L 116.649977 294.930227 
L 116.552507 294.94575 
L 116.459678 300.074024 
L 116.362208 297.946754 
L 116.264738 298.395448 
L 116.069798 293.643279 
L 115.972328 295.659965 
L 115.777387 294.734191 
L 115.679917 298.417624 
L 115.587088 296.482399 
L 115.489618 296.560163 
L 115.392148 298.166444 
L 115.294678 297.804532 
L 115.197208 292.813306 
L 115.006909 296.294051 
L 114.909439 295.966141 
L 114.811968 294.263912 
L 114.714498 303.09336 
L 114.62167 294.891788 
L 114.3339 299.137014 
L 114.13896 295.996596 
L 114.04149 299.150911 
L 113.948661 293.40023 
L 113.851191 298.931664 
L 113.753721 296.899603 
L 113.660892 297.731647 
L 113.465952 296.97234 
L 113.275653 298.543288 
L 113.178183 296.3112 
L 113.085354 297.018614 
L 112.987884 296.649162 
L 112.895055 296.893985 
L 112.797585 297.944093 
L 112.607286 294.136621 
L 112.509816 296.760929 
L 112.416987 293.714834 
L 112.319517 293.996913 
L 112.226688 294.231683 
L 112.03639 298.460941 
L 111.846091 295.874481 
L 111.655792 299.70398 
L 111.465493 293.810634 
L 111.368023 294.578072 
L 111.275194 292.792312 
L 110.987425 297.124616 
L 110.894596 296.723378 
L 110.801767 290.767052 
L 110.611469 298.267715 
L 110.513998 295.248378 
L 110.42117 295.67194 
L 110.230871 294.629076 
L 110.138042 296.937598 
L 109.947743 290.616551 
L 109.762086 295.107339 
L 109.664616 293.489378 
L 109.571787 293.857352 
L 109.478958 297.339279 
L 109.381488 296.111025 
L 109.288659 292.044833 
L 109.09836 295.21881 
L 108.819874 290.931007 
L 108.629575 297.494511 
L 108.392862 290.646858 
L 108.202563 298.042259 
L 108.109734 296.565633 
L 108.012264 290.653659 
L 107.919436 296.569033 
L 107.733778 295.094033 
L 107.636308 299.531007 
L 107.35318 293.622434 
L 107.260352 301.016208 
L 107.167523 296.582782 
L 107.074694 298.062808 
L 106.977224 292.150982 
L 106.508439 301.029957 
L 106.41561 299.553183 
L 106.229953 296.599784 
L 106.137124 295.123158 
L 106.039654 301.038532 
L 105.946825 293.648158 
L 105.761168 301.043558 
L 105.668339 299.566932 
L 105.57551 301.047107 
L 105.389853 295.136907 
L 105.292383 295.138533 
L 105.199554 298.097107 
L 105.013896 296.622108 
L 104.828239 296.625508 
L 104.73541 293.670482 
L 104.642581 296.628908 
L 104.549753 292.195482 
L 104.364095 295.155683 
L 104.271267 293.679057 
L 104.085609 298.117657 
L 103.99278 290.727283 
L 103.807123 293.687631 
L 103.714294 290.732458 
L 103.621465 293.691032 
L 103.528637 280.387058 
L 103.342979 32.01911 
L 103.324131 -1 
M 102.959722 -1 
L 102.786007 290.749607 
L 102.693178 295.186581 
L 102.604991 293.709807 
L 102.419333 295.191608 
L 102.326505 295.193382 
L 102.140847 289.283182 
L 102.048019 298.155356 
L 101.959831 290.764982 
L 101.774174 298.160383 
L 101.681345 296.683757 
L 101.500329 299.643957 
L 101.314672 289.298557 
L 101.129014 296.694106 
L 101.040827 293.738932 
L 100.947998 295.219106 
L 100.762341 290.787306 
L 100.674153 290.788932 
L 100.581325 293.747507 
L 100.488496 289.314081 
L 100.395667 292.272507 
L 100.30748 286.360681 
L 100.121823 293.756081 
L 100.033635 284.887455 
L 99.940807 289.324282 
L 99.847978 276.020456 
L 99.75979 284.892482 
L 99.666962 278.980656 
L 99.485946 287.854456 
L 99.393117 290.81303 
L 99.300288 287.857857 
L 99.119272 289.339657 
L 98.938256 283.429605 
L 98.75724 286.389805 
L 98.664412 284.913032 
L 98.576224 280.479606 
L 98.483396 281.959632 
L 98.395208 292.310206 
L 98.209551 284.921606 
L 98.121363 290.83698 
L 98.028535 281.968207 
L 97.940347 284.926781 
L 97.847519 283.450155 
L 97.759331 289.365381 
L 97.666503 283.453555 
L 97.578315 290.847181 
L 97.485487 286.413756 
L 97.397299 289.372182 
L 97.304471 284.938756 
L 97.216283 286.41893 
L 97.128096 295.290956 
L 96.94708 292.337556 
L 96.854251 290.860931 
L 96.673235 279.037131 
L 96.585048 281.995705 
L 96.404032 289.391105 
L 96.315845 290.871132 
L 96.134829 283.48268 
L 96.046641 292.354706 
L 95.953813 284.96448 
L 95.865625 286.444506 
L 95.777438 295.31668 
L 95.596422 283.492881 
L 95.415406 292.366681 
L 95.327219 283.498055 
L 95.239032 292.370081 
L 94.969828 286.461656 
L 94.612438 290.903804 
L 94.519609 283.51343 
L 94.343234 289.430431 
L 94.255047 286.475405 
L 93.985844 295.350979 
L 93.897656 287.960605 
L 93.71664 292.399206 
L 93.628453 292.40098 
L 93.540266 290.924354 
L 93.452079 283.53398 
L 93.275704 292.40778 
L 93.006501 285.020955 
L 92.918313 289.457929 
L 92.830126 282.067555 
L 92.653752 287.984556 
L 92.565564 283.55113 
L 92.296361 292.426704 
L 92.119986 285.038104 
L 92.031799 286.518131 
L 91.943612 285.041505 
L 91.855424 290.956879 
L 91.767237 279.131305 
L 91.590863 289.483505 
L 91.414488 289.487053 
L 91.149926 296.88408 
L 91.061739 286.537054 
L 90.973552 290.974028 
L 90.885364 289.497254 
L 90.797177 290.977428 
L 90.620802 288.024029 
L 90.360882 293.942803 
L 90.272695 289.509229 
L 90.184507 295.424604 
L 90.09632 286.55583 
L 90.008133 286.557604 
L 89.919946 289.516178 
L 89.831758 286.561004 
L 89.655384 292.478004 
L 89.483651 289.524605 
L 89.395463 292.483179 
L 89.307276 279.179353 
L 89.130901 289.531553 
L 89.047355 291.01158 
L 88.959168 285.099754 
L 88.782794 295.451954 
L 88.61106 291.020154 
L 88.434686 296.937155 
L 88.262953 288.070303 
L 88.086578 288.073703 
L 87.998391 291.032129 
L 87.914845 286.598703 
L 87.826658 292.514077 
L 87.73847 291.037304 
L 87.650283 293.995878 
L 87.566737 285.127104 
L 87.47855 295.477678 
L 87.390363 291.044104 
L 87.306817 291.045878 
L 87.21863 291.047652 
L 87.130442 294.006079 
L 87.046896 289.572653 
L 86.870522 295.489653 
L 86.786976 289.577827 
L 86.698789 291.057853 
L 86.610601 291.059628 
L 86.355322 283.672654 
L 86.178948 292.546602 
L 86.095402 285.156228 
L 86.007215 294.028403 
L 85.923669 289.594829 
L 85.751936 292.555177 
L 85.492015 289.603404 
L 85.403828 294.040378 
L 85.320282 289.606804 
L 85.232095 289.608578 
L 85.060362 295.525578 
L 84.888629 286.658579 
L 84.805083 292.573953 
L 84.716895 288.140527 
L 84.549804 295.535927 
L 84.378071 291.104127 
L 84.289883 291.105754 
L 84.206337 288.150728 
L 83.946417 294.069502 
L 83.862871 291.114328 
L 83.779325 295.551302 
L 83.691138 294.074676 
L 83.607592 286.684303 
L 83.519405 291.121277 
L 83.435859 289.644503 
L 83.264126 291.126303 
L 83.097034 291.129852 
L 83.008847 289.653078 
L 82.841755 291.134878 
L 82.753568 286.701452 
L 82.670022 292.616826 
L 82.498289 288.185027 
L 82.414743 292.621853 
L 82.247651 289.668453 
L 82.159464 288.191827 
L 81.992372 294.108828 
L 81.908826 286.718602 
L 81.820639 297.069028 
L 81.737093 295.592402 
L 81.653547 291.158976 
L 81.570002 295.595802 
L 81.481814 288.205576 
L 81.314723 294.122577 
L 81.147631 294.125977 
L 81.059444 289.692551 
L 80.975898 292.650977 
L 80.808806 291.175978 
L 80.72526 283.785752 
L 80.641714 294.136326 
L 80.553527 292.659552 
L 80.469981 294.139726 
L 80.386435 292.662952 
L 80.302889 295.621526 
L 80.219344 289.709553 
L 80.135798 292.668127 
L 79.968706 286.757927 
L 79.880519 297.108501 
L 79.796973 288.239727 
L 79.713427 289.719901 
L 79.629881 286.764876 
L 79.546335 292.680102 
L 79.46279 291.203476 
L 79.379244 288.248302 
L 79.295698 297.120476 
L 79.212152 291.208502 
L 79.128606 295.645476 
L 78.877969 291.215451 
L 78.710877 295.654051 
L 78.627331 289.742225 
L 78.543785 294.179052 
L 78.376693 288.268852 
L 78.293148 294.184226 
L 78.126056 289.752426 
L 78.04251 289.7542 
L 77.958964 291.234227 
L 77.875418 289.757601 
L 77.791872 298.629627 
L 77.708327 289.761001 
L 77.541235 297.156401 
L 77.46233 291.244575 
L 77.378785 291.246202 
L 77.211693 300.120002 
L 77.128147 291.251376 
L 77.044601 292.73155 
L 76.961055 294.211576 
L 76.798605 288.301377 
L 76.631513 289.783325 
L 76.464422 289.786725 
L 76.380876 294.223551 
L 76.301971 291.268525 
L 76.218426 292.748552 
L 76.13488 291.271926 
L 76.051334 286.8385 
L 75.888884 289.7987 
L 75.805338 288.321926 
L 75.721792 289.8021 
L 75.638246 294.239075 
L 75.559342 291.283901 
L 75.39225 292.765701 
L 75.308704 288.332275 
L 75.062708 297.20785 
L 74.900258 291.29765 
L 74.816712 291.299276 
L 74.733166 294.25785 
L 74.654261 289.824424 
L 74.570716 291.304451 
L 74.48717 292.784625 
L 74.32472 288.352825 
L 74.241174 292.789651 
L 73.995178 285.402826 
L 73.832727 294.276626 
L 73.832727 294.276626 
" style="fill:none;stroke:#1f77b4;stroke-linecap:square;stroke-width:1.5;"/>
   </g>
   <g id="patch_3">
    <path d="M 57.6 307.584 
L 57.6 41.472 
" style="fill:none;stroke:#000000;stroke-linecap:square;stroke-linejoin:miter;stroke-width:0.8;"/>
   </g>
   <g id="patch_4">
    <path d="M 414.72 307.584 
L 414.72 41.472 
" style="fill:none;stroke:#000000;stroke-linecap:square;stroke-linejoin:miter;stroke-width:0.8;"/>
   </g>
   <g id="patch_5">
    <path d="M 57.6 307.584 
L 414.72 307.584 
" style="fill:none;stroke:#000000;stroke-linecap:square;stroke-linejoin:miter;stroke-width:0.8;"/>
   </g>
   <g id="patch_6">
    <path d="M 57.6 41.472 
L 414.72 41.472 
" style="fill:none;stroke:#000000;stroke-linecap:square;stroke-linejoin:miter;stroke-width:0.8;"/>
   </g>
   <g id="legend_1">
    <g id="patch_7">
     <path d="M 335.3825 64.150125 
L 407.72 64.150125 
Q 409.72 64.150125 409.72 62.150125 
L 409.72 48.472 
Q 409.72 46.472 407.72 46.472 
L 335.3825 46.472 
Q 333.3825 46.472 333.3825 48.472 
L 333.3825 62.150125 
Q 333.3825 64.150125 335.3825 64.150125 
z
" style="fill:#ffffff;opacity:0.8;stroke:#cccccc;stroke-linejoin:miter;"/>
    </g>
    <g id="line2d_20">
     <path d="M 337.3825 54.570438 
L 357.3825 54.570438 
" style="fill:none;stroke:#1f77b4;stroke-linecap:square;stroke-width:1.5;"/>
    </g>
    <g id="line2d_21"/>
    <g id="text_19">
     <!-- PL at RT -->
     <defs>
      <path d="M 19.671875 64.796875 
L 19.671875 37.40625 
L 32.078125 37.40625 
Q 38.96875 37.40625 42.71875 40.96875 
Q 46.484375 44.53125 46.484375 51.125 
Q 46.484375 57.671875 42.71875 61.234375 
Q 38.96875 64.796875 32.078125 64.796875 
z
M 9.8125 72.90625 
L 32.078125 72.90625 
Q 44.34375 72.90625 50.609375 67.359375 
Q 56.890625 61.8125 56.890625 51.125 
Q 56.890625 40.328125 50.609375 34.8125 
Q 44.34375 29.296875 32.078125 29.296875 
L 19.671875 29.296875 
L 19.671875 0 
L 9.8125 0 
z
" id="DejaVuSans-80"/>
      <path d="M 9.8125 72.90625 
L 19.671875 72.90625 
L 19.671875 8.296875 
L 55.171875 8.296875 
L 55.171875 0 
L 9.8125 0 
z
" id="DejaVuSans-76"/>
      <path id="DejaVuSans-32"/>
      <path d="M 34.28125 27.484375 
Q 23.390625 27.484375 19.1875 25 
Q 14.984375 22.515625 14.984375 16.5 
Q 14.984375 11.71875 18.140625 8.90625 
Q 21.296875 6.109375 26.703125 6.109375 
Q 34.1875 6.109375 38.703125 11.40625 
Q 43.21875 16.703125 43.21875 25.484375 
L 43.21875 27.484375 
z
M 52.203125 31.203125 
L 52.203125 0 
L 43.21875 0 
L 43.21875 8.296875 
Q 40.140625 3.328125 35.546875 0.953125 
Q 30.953125 -1.421875 24.3125 -1.421875 
Q 15.921875 -1.421875 10.953125 3.296875 
Q 6 8.015625 6 15.921875 
Q 6 25.140625 12.171875 29.828125 
Q 18.359375 34.515625 30.609375 34.515625 
L 43.21875 34.515625 
L 43.21875 35.40625 
Q 43.21875 41.609375 39.140625 45 
Q 35.0625 48.390625 27.6875 48.390625 
Q 23 48.390625 18.546875 47.265625 
Q 14.109375 46.140625 10.015625 43.890625 
L 10.015625 52.203125 
Q 14.9375 54.109375 19.578125 55.046875 
Q 24.21875 56 28.609375 56 
Q 40.484375 56 46.34375 49.84375 
Q 52.203125 43.703125 52.203125 31.203125 
z
" id="DejaVuSans-97"/>
      <path d="M 18.3125 70.21875 
L 18.3125 54.6875 
L 36.8125 54.6875 
L 36.8125 47.703125 
L 18.3125 47.703125 
L 18.3125 18.015625 
Q 18.3125 11.328125 20.140625 9.421875 
Q 21.96875 7.515625 27.59375 7.515625 
L 36.8125 7.515625 
L 36.8125 0 
L 27.59375 0 
Q 17.1875 0 13.234375 3.875 
Q 9.28125 7.765625 9.28125 18.015625 
L 9.28125 47.703125 
L 2.6875 47.703125 
L 2.6875 54.6875 
L 9.28125 54.6875 
L 9.28125 70.21875 
z
" id="DejaVuSans-116"/>
      <path d="M 44.390625 34.1875 
Q 47.5625 33.109375 50.5625 29.59375 
Q 53.5625 26.078125 56.59375 19.921875 
L 66.609375 0 
L 56 0 
L 46.6875 18.703125 
Q 43.0625 26.03125 39.671875 28.421875 
Q 36.28125 30.8125 30.421875 30.8125 
L 19.671875 30.8125 
L 19.671875 0 
L 9.8125 0 
L 9.8125 72.90625 
L 32.078125 72.90625 
Q 44.578125 72.90625 50.734375 67.671875 
Q 56.890625 62.453125 56.890625 51.90625 
Q 56.890625 45.015625 53.6875 40.46875 
Q 50.484375 35.9375 44.390625 34.1875 
z
M 19.671875 64.796875 
L 19.671875 38.921875 
L 32.078125 38.921875 
Q 39.203125 38.921875 42.84375 42.21875 
Q 46.484375 45.515625 46.484375 51.90625 
Q 46.484375 58.296875 42.84375 61.546875 
Q 39.203125 64.796875 32.078125 64.796875 
z
" id="DejaVuSans-82"/>
      <path d="M -0.296875 72.90625 
L 61.375 72.90625 
L 61.375 64.59375 
L 35.5 64.59375 
L 35.5 0 
L 25.59375 0 
L 25.59375 64.59375 
L -0.296875 64.59375 
z
" id="DejaVuSans-84"/>
     </defs>
     <g transform="translate(365.3825 58.070438)scale(0.1 -0.1)">
      <use xlink:href="#DejaVuSans-80"/>
      <use x="60.302734" xlink:href="#DejaVuSans-76"/>
      <use x="116.015625" xlink:href="#DejaVuSans-32"/>
      <use x="147.802734" xlink:href="#DejaVuSans-97"/>
      <use x="209.082031" xlink:href="#DejaVuSans-116"/>
      <use x="248.291016" xlink:href="#DejaVuSans-32"/>
      <use x="280.078125" xlink:href="#DejaVuSans-82"/>
      <use x="342.310547" xlink:href="#DejaVuSans-84"/>
     </g>
    </g>
   </g>
  </g>
 </g>
 <defs>
  <clipPath id="pfd76c16a2c">
   <rect height="266.112" width="357.12" x="57.6" y="41.472"/>
  </clipPath>
 </defs>
</svg>
